<?xml version="1.0" encoding="UTF-8" standalone="no"?>
<!-- Generator: Adobe Illustrator 22.1.0, SVG Export Plug-In . SVG Version: 6.00 Build 0)  -->

<svg
   version="1.1"
   id="Слой_1"
   x="0px"
   y="0px"
   viewBox="0 0 104.2 30.3"
   style="enable-background:new 0 0 104.2 30.3;"
   xml:space="preserve"
   sodipodi:docname="logo.svg"
   inkscape:version="1.3.2 (091e20e, 2023-11-25, custom)"
   xmlns:inkscape="http://www.inkscape.org/namespaces/inkscape"
   xmlns:sodipodi="http://sodipodi.sourceforge.net/DTD/sodipodi-0.dtd"
   xmlns="http://www.w3.org/2000/svg"
   xmlns:svg="http://www.w3.org/2000/svg"><defs
   id="defs13" /><sodipodi:namedview
   id="namedview13"
   pagecolor="#ffffff"
   bordercolor="#111111"
   borderopacity="1"
   inkscape:showpageshadow="0"
   inkscape:pageopacity="0"
   inkscape:pagecheckerboard="1"
   inkscape:deskcolor="#d1d1d1"
   inkscape:zoom="14.011517"
   inkscape:cx="52.099997"
   inkscape:cy="15.13041"
   inkscape:window-width="1920"
   inkscape:window-height="1129"
   inkscape:window-x="-8"
   inkscape:window-y="-8"
   inkscape:window-maximized="1"
   inkscape:current-layer="Слой_1" />
<style
   type="text/css"
   id="style1">
	.st0{fill:#FFFFFF;}
</style>
<title
   id="title1">logo2</title>
<g
   id="Слой_2_1_">
	<g
   id="logo">
		<path
   class="st0"
   d="M13.1,19.5H9v10.7H4.2V19.5h-4v-2.1h13L13.1,19.5z"
   id="path1" />
		<path
   class="st0"
   d="M28.4,26.4c0.1,1-0.2,2.1-0.8,2.9c-0.7,0.7-1.6,1-2.6,0.9h-6.9c-2.2,0-3.3-1.3-3.3-3.8v-9h4.9v9.5    c-0.1,0.5,0.3,1.1,0.8,1.2c0.1,0,0.2,0,0.3,0h4.3c0.3,0,0.6,0,0.9-0.2c0.2-0.1,0.3-0.4,0.3-0.8v-9.6h2.1L28.4,26.4z"
   id="path2" />
		<path
   class="st0"
   d="M42.7,27.1c0,2-1,3-2.9,3h-9.4V28h6.8c0.5,0,0.8-0.2,0.8-0.6v-0.9c0-0.4-0.3-0.6-0.8-0.6H33    c-0.7,0.1-1.4-0.1-2-0.6c-0.5-0.6-0.7-1.3-0.6-2.1v-3.1c0-0.7,0.2-1.5,0.6-2.1c0.5-0.6,1.2-0.9,2-0.9h9.7v2.1H36    c-0.6,0-0.9,0.2-0.9,0.5v0.8c0,0.3,0.3,0.5,0.9,0.5h3.6c2.1,0,3.1,0.8,3.1,2.5L42.7,27.1z"
   id="path3" />
		<path
   class="st0"
   d="M58.3,26.4c0.1,1-0.2,2.1-0.8,2.9c-0.7,0.7-1.6,1-2.6,0.9h-7c-2.2,0-3.3-1.3-3.3-3.8v-9h4.9v9.5    c-0.1,0.5,0.3,1.1,0.8,1.2c0.1,0,0.2,0,0.3,0H55c0.3,0,0.6,0,0.9-0.2c0.2-0.1,0.3-0.4,0.3-0.8v-9.6h2.2V26.4z"
   id="path4" />
		<path
   class="st0"
   d="M74.5,30.2h-5.3l-2.3-5.6h-1.5v5.6h-4.9V17.4h10.2c0.8-0.1,1.7,0.2,2.3,0.6c0.6,0.6,0.9,1.4,0.8,2.2v2.5    c0.1,0.9-0.5,1.8-1.5,1.9c-0.2,0-0.4,0-0.5,0L74.5,30.2z M68.9,21.8v-1.6c0.1-0.3-0.1-0.6-0.4-0.7c-0.1,0-0.2,0-0.3,0h-2.8v3h2.8    c0.4,0,0.7-0.2,0.7-0.5C68.9,21.9,68.9,21.8,68.9,21.8z"
   id="path5" />
		<path
   class="st0"
   d="M77,23.1v-5.8h1.1v2.3h2.2v-2.3h1.1v5.8h-1.1v-2.5h-2.2v2.5H77z"
   id="path6" />
		<path
   class="st0"
   d="M82.8,23.1v-5.8h3.8v0.9h-2.7v1.4h2v0.9h-2v1.6h2.8v1L82.8,23.1z"
   id="path7" />
		<path
   class="st0"
   d="M87.5,23.1v-5.8h1.1v4.8h2.5v1L87.5,23.1z"
   id="path8" />
		<path
   class="st0"
   d="M91.9,23.1v-5.8H94c0.5,0,1.1,0.1,1.5,0.4c0.3,0.3,0.5,0.8,0.5,1.3c0,0.5-0.2,1-0.5,1.3    c-0.4,0.3-0.9,0.5-1.4,0.4H93v2.4L91.9,23.1z M93,19.9h0.8c0.3,0,0.6,0,0.8-0.2c0.2-0.2,0.3-0.4,0.3-0.6c0-0.2-0.1-0.5-0.3-0.6    c-0.3-0.1-0.6-0.2-0.8-0.2H93V19.9z"
   id="path9" />
		
		<path
   class="st0"
   d="M85.9,29.7v-5.8h2c0.6,0,1.2,0.1,1.7,0.4c0.6,0.6,0.7,1.5,0.3,2.3c-0.2,0.3-0.5,0.4-0.8,0.5l1.3,2.6h-1.2    L88,27.4h-1v2.4L85.9,29.7z M87,26.4h1c0.3,0,0.5,0,0.8-0.2c0.2-0.2,0.3-0.4,0.3-0.6c0-0.2-0.1-0.5-0.3-0.6    c-0.2-0.1-0.5-0.2-0.8-0.2h-1V26.4z"
   id="path11" />
		<path
   class="st0"
   d="M91.3,27.6v-3.7h1.1v3.7c0,0.3,0.1,0.7,0.3,0.9c0.2,0.2,0.5,0.3,0.8,0.3c0.3,0,0.6-0.1,0.9-0.3    c0.2-0.3,0.3-0.6,0.3-1v-3.7h1.1v3.9c0,0.6-0.2,1.1-0.6,1.5c-0.5,0.4-1,0.6-1.6,0.5c-0.6,0-1.2-0.2-1.7-0.5    C91.4,28.8,91.2,28.2,91.3,27.6z"
   id="path12" />
		<path
   class="st0"
   d="M86.4,0.1c-0.6,0-1.3,0.1-1.9,0.3L69.7,5.9c-1,0.4-1,1,0,1.4l8,3v5.1c0-1,2-1.7,4.4-1.7s4.4,0.8,4.4,1.8    c0-1,2-1.7,4.4-1.7s4.4,0.8,4.4,1.8v-5l8-2.9c1-0.4,1-1,0-1.4l-12-4.5v6.5l0.9,2.2c0,0.2-0.6,0.4-1.3,0.4s-1.3-0.2-1.3-0.4L90.4,8    V1.2l-2.1-0.8C87.7,0.2,87.1,0.1,86.4,0.1z"
   id="path13" />
	</g>
</g>
<ellipse
   style="fill:#ffffff;stroke-width:1.06394"
   id="path14"
   cx="80.362465"
   cy="27.156233"
   rx="3.2830133"
   ry="3.2473285" /></svg>
